<?xml version="1.0" encoding="UTF-8"?>
<!DOCTYPE svg PUBLIC "-//W3C//DTD SVG 1.1//EN" "http://www.w3.org/Graphics/SVG/1.1/DTD/svg11.dtd">
<!-- Creator: CorelDRAW X8 -->
<svg xmlns="http://www.w3.org/2000/svg" xml:space="preserve" width="16.353mm" height="16.3538mm" version="1.1" style="shape-rendering:geometricPrecision; text-rendering:geometricPrecision; image-rendering:optimizeQuality; fill-rule:evenodd; clip-rule:evenodd"
viewBox="0 0 874 874"
 xmlns:xlink="http://www.w3.org/1999/xlink">
 <defs>
  <style type="text/css">
   <![CDATA[
    .fil0 {fill:url(#id0)}
   ]]>
  </style>
  <linearGradient id="id0" gradientUnits="userSpaceOnUse" x1="-33.7371" y1="11.3312" x2="861.671" y2="683.621">
   <stop offset="0" style="stop-opacity:1; stop-color:#009846"/>
   <stop offset="0.368627" style="stop-opacity:1; stop-color:#75A85A"/>
   <stop offset="0.529412" style="stop-opacity:1; stop-color:#879057"/>
   <stop offset="1" style="stop-opacity:1; stop-color:#E51A4B"/>
  </linearGradient>
 </defs>
 <g id="Layer_x0020_1">
  <metadata id="CorelCorpID_0Corel-Layer"/>
  <path class="fil0" d="M437 0c242,1 437,197 437,437 -1,242 -197,437 -438,437 -241,-1 -437,-197 -436,-438 1,-241 197,-437 437,-436zm0 70c-202,0 -366,163 -367,366 -1,202 164,367 367,367 202,0 365,-163 366,-365 1,-203 -164,-368 -366,-368zm200 168l0 0c-4,-3 -4,-9 0,-13l18 -18c4,-4 10,-4 13,0l0 0c4,3 4,9 0,13l-18 18c-4,4 -10,4 -13,0zm-200 -85l0 0c-5,0 -9,-4 -9,-9l0 -26c0,-5 4,-10 9,-10l0 0c5,0 9,5 9,10l0 26c0,5 -4,9 -9,9zm-202 81l0 0c-3,4 -9,4 -13,0l-18 -18c-4,-4 -4,-10 0,-13l0 0c3,-4 9,-4 13,0l18 18c4,4 4,10 0,13zm-85 200l0 0c0,5 -4,10 -9,10l-27 0c-5,0 -9,-5 -9,-10l0 0c0,-5 4,-9 9,-9l27 0c5,0 9,4 9,9zm81 202l0 0c4,4 4,9 0,13l-18 19c-4,3 -10,3 -13,0l0 0c-4,-4 -4,-10 0,-13l18 -19c4,-4 10,-4 13,0zm200 85l0 0c5,0 9,4 9,9l0 27c0,5 -4,9 -9,9l0 0c-5,0 -9,-4 -9,-9l0 -27c0,-5 4,-9 9,-9zm202 -81l0 0c3,-4 9,-4 13,0l19 19c3,3 3,9 0,13l0 0c-4,3 -10,3 -14,0l-18 -19c-4,-4 -4,-9 0,-13zm85 -200l0 0c0,-5 4,-9 9,-9l27 0c5,0 9,4 9,9l0 0c0,5 -4,9 -9,9l-27 0c-5,0 -9,-4 -9,-9zm-45 -133c-63,61 -125,122 -189,185 -9,-15 -23,-26 -13,-47 8,-16 -5,-40 -23,-42 -23,-2 -25,-18 -34,-35 86,-22 171,-44 257,-66 0,1 1,3 2,5zm-473 260c63,-61 126,-123 190,-185 10,15 22,26 12,47 -8,16 6,40 24,42 23,2 25,18 34,34 -87,23 -172,45 -257,67 -1,-2 -2,-3 -3,-5z"/>
 </g>
</svg>
