<?xml version="1.0" encoding="UTF-8"?>
<!DOCTYPE svg PUBLIC "-//W3C//DTD SVG 1.1//EN" "http://www.w3.org/Graphics/SVG/1.1/DTD/svg11.dtd">
<!-- Creator: CorelDRAW X8 -->
<svg xmlns="http://www.w3.org/2000/svg" xml:space="preserve" width="16.3535mm" height="14.9192mm" version="1.1" style="shape-rendering:geometricPrecision; text-rendering:geometricPrecision; image-rendering:optimizeQuality; fill-rule:evenodd; clip-rule:evenodd"
viewBox="0 0 1635 1492"
 xmlns:xlink="http://www.w3.org/1999/xlink">
 <defs>
  <style type="text/css">
   <![CDATA[
    .fil0 {fill:#C0D4A3}
   ]]>
  </style>
 </defs>
 <g id="Layer_x0020_1">
  <metadata id="CorelCorpID_0Corel-Layer"/>
  <path class="fil0" d="M0 746c13,-15 25,-32 40,-46 102,-98 205,-196 307,-294 79,-75 157,-150 236,-225 52,-49 104,-99 156,-149 47,-43 112,-43 158,1 79,75 158,151 237,227 2,2 4,3 7,6 1,-7 2,-13 2,-18 0,-65 0,-130 0,-196 0,-37 10,-48 42,-48 58,0 117,0 176,0 30,0 41,12 41,47 0,149 0,298 0,447 0,13 3,21 11,28 67,64 134,127 201,191 8,8 14,19 21,29 0,7 0,14 0,21 -21,30 -42,60 -64,90 -18,26 -35,28 -58,7 -61,-58 -121,-117 -182,-175 -53,-51 -107,-102 -160,-153 -55,-52 -111,-105 -166,-158 -59,-57 -119,-113 -178,-171 -7,-6 -12,-6 -19,0 -54,53 -108,105 -163,157 -54,52 -108,103 -162,155 -55,52 -109,104 -163,156 -61,58 -122,116 -183,174 -7,7 -14,14 -21,20 -17,14 -33,13 -46,-5 -24,-32 -47,-65 -70,-97 0,-7 0,-14 0,-21zm947 745c0,-149 0,-296 0,-445 -5,0 -10,0 -14,0 -77,0 -154,0 -231,-1 -11,0 -15,4 -15,17 1,136 1,272 1,409 0,6 0,12 0,21 -6,0 -11,0 -16,0 -122,0 -244,0 -365,0 -47,0 -73,-29 -73,-83 0,-180 0,-359 -1,-538 0,-13 5,-22 14,-30 90,-85 179,-170 269,-255 80,-74 159,-149 238,-224 21,-20 42,-40 64,-61 32,31 63,60 94,89 91,86 182,172 273,258 70,66 139,132 209,198 4,4 7,13 7,19 1,184 1,368 1,551 -1,45 -27,75 -66,76 -127,0 -254,0 -381,0 -2,0 -3,-1 -8,-1z"/>
 </g>
</svg>
