<?xml version="1.0" encoding="UTF-8"?>
<!DOCTYPE svg PUBLIC "-//W3C//DTD SVG 1.1//EN" "http://www.w3.org/Graphics/SVG/1.1/DTD/svg11.dtd">
<!-- Creator: CorelDRAW X8 -->
<svg xmlns="http://www.w3.org/2000/svg" xml:space="preserve" width="11.3746mm" height="14.919mm" version="1.1" style="shape-rendering:geometricPrecision; text-rendering:geometricPrecision; image-rendering:optimizeQuality; fill-rule:evenodd; clip-rule:evenodd"
viewBox="0 0 402 527"
 xmlns:xlink="http://www.w3.org/1999/xlink">
 <defs>
  <style type="text/css">
   <![CDATA[
    .fil0 {fill:#C0D4A3}
   ]]>
  </style>
 </defs>
 <g id="Layer_x0020_1">
  <metadata id="CorelCorpID_0Corel-Layer"/>
  <path class="fil0" d="M379 402c-21,-11 -33,-34 -33,-57l0 -166c0,-75 -56,-139 -129,-147l0 -16c0,-9 -7,-16 -16,-16 -9,0 -16,7 -16,16l0 16c-73,8 -129,70 -129,144l0 169c0,23 -12,46 -33,57 -14,8 -23,24 -23,40 0,7 6,12 12,12l378 0c6,0 12,-5 12,-12 0,0 0,0 0,0 0,-16 -9,-32 -23,-40l0 0zm-178 125c0,0 0,0 0,0 28,0 51,-21 55,-49l-110 0c4,28 27,49 55,49l0 0z"/>
 </g>
</svg>
