<?xml version="1.0" encoding="UTF-8"?>
<!DOCTYPE svg PUBLIC "-//W3C//DTD SVG 1.1//EN" "http://www.w3.org/Graphics/SVG/1.1/DTD/svg11.dtd">
<!-- Creator: CorelDRAW X8 -->
<svg xmlns="http://www.w3.org/2000/svg" xml:space="preserve" width="16.353mm" height="14.4645mm" version="1.1" style="shape-rendering:geometricPrecision; text-rendering:geometricPrecision; image-rendering:optimizeQuality; fill-rule:evenodd; clip-rule:evenodd"
viewBox="0 0 454 402"
 xmlns:xlink="http://www.w3.org/1999/xlink">
 <defs>
  <style type="text/css">
   <![CDATA[
    .fil0 {fill:#C0D4A3}
   ]]>
  </style>
 </defs>
 <g id="Layer_x0020_1">
  <metadata id="CorelCorpID_0Corel-Layer"/>
  <path class="fil0" d="M407 251l0 -41c-2,0 -3,0 -4,0 -29,0 -55,-20 -59,-49 -4,29 -29,49 -58,49 -29,0 -55,-20 -59,-49 -3,29 -29,49 -58,49 -29,0 -55,-20 -59,-49 -3,29 -29,49 -58,49 -2,0 -4,0 -6,0l0 41c0,57 47,104 105,104l20 0c12,0 23,3 33,10 32,22 93,52 170,29 2,-1 2,-3 0,-3 -16,-2 -53,-7 -77,-25 -5,-3 -2,-11 4,-11 0,0 1,0 1,0 58,0 105,-47 105,-104zm-63 13c0,14 -12,26 -26,26 -14,0 -25,-12 -25,-26 0,-14 11,-26 25,-26 14,0 26,12 26,26zm-92 0c0,14 -11,26 -26,26 -14,0 -25,-12 -25,-26 0,-14 11,-26 25,-26 15,0 26,12 26,26zm-92 0c0,14 -11,26 -25,26 -15,0 -26,-12 -26,-26 0,-14 11,-26 26,-26 14,0 25,12 25,26zm191 -145l0 0 0 35c0,27 23,49 52,49 28,0 51,-22 51,-49l0 -35 -99 0 -4 0zm-13 35l0 -35 -104 0 0 0 0 0 0 35c0,27 23,49 52,49 28,0 52,-22 52,-49zm-221 -35l0 0zm104 35l0 -35 -104 0 0 35c0,27 23,49 52,49 28,0 52,-22 52,-49zm-221 -35l0 0zm104 35l0 -35 -3 0 -101 0 0 35c0,27 23,49 52,49 28,0 52,-22 52,-49zm-96 -48l96 0 2 0 44 -106 -24 0c-15,0 -29,7 -40,18l-78 88zm226 0l0 0 100 0 -51 -106 0 0 -53 0 4 106zm-114 0l100 0 -4 -106 -52 0 -44 106zm178 -106l50 106 3 0 94 0 -90 -90c-11,-10 -24,-16 -38,-16l-19 0z"/>
 </g>
</svg>
