<?xml version="1.0" encoding="UTF-8"?>
<!DOCTYPE svg PUBLIC "-//W3C//DTD SVG 1.1//EN" "http://www.w3.org/Graphics/SVG/1.1/DTD/svg11.dtd">
<!-- Creator: CorelDRAW X8 -->
<svg xmlns="http://www.w3.org/2000/svg" xml:space="preserve" width="16.2214mm" height="16.2209mm" version="1.1" style="shape-rendering:geometricPrecision; text-rendering:geometricPrecision; image-rendering:optimizeQuality; fill-rule:evenodd; clip-rule:evenodd"
viewBox="0 0 198 198"
 xmlns:xlink="http://www.w3.org/1999/xlink">
 <defs>
  <style type="text/css">
   <![CDATA[
    .fil0 {fill:#727271;fill-rule:nonzero}
   ]]>
  </style>
 </defs>
 <g id="Layer_x0020_1">
  <metadata id="CorelCorpID_0Corel-Layer"/>
  <path class="fil0" d="M191 60l-12 -22c-2,-3 -6,-3 -9,-1l-13 7 0 0c-5,-6 -12,-11 -20,-15l4 -15c1,-3 -1,-6 -4,-7l-25 -7c-3,-1 -6,1 -7,4l-4 15 0 0c-8,-1 -15,0 -25,3l-7 -13c-2,-3 -5,-4 -8,-2l-23 12c-2,2 -2,5 0,8l7 13 0 0c-7,6 -12,12 -16,20l-15 -4c-3,0 -6,1 -7,5l-7 24c-1,4 1,7 4,8l15 4 0 0c0,8 0,15 3,25l-13 7c-3,2 -3,4 -1,7l12 23c2,2 4,3 7,2l13 -8 0 0c6,7 13,12 20,16l-4 14c0,4 1,7 5,8l24 6c4,1 7,-1 8,-4l4 -14 0 -1c8,1 16,0 25,-3l8 13c1,3 4,4 7,3l22 -13c3,-2 4,-5 2,-8l-7 -13 0 0c7,-6 11,-12 15,-20l14 4c4,1 7,-1 8,-4l6 -25c1,-3 -1,-6 -4,-7l-14 -4 0 0c0,-9 -1,-16 -4,-25l13 -8c3,-1 5,-5 3,-8zm-121 16c3,-4 6,-7 10,-9 6,-3 11,-5 17,-5 1,0 1,0 2,0 0,0 0,0 1,0 0,0 1,0 1,0 1,0 2,0 2,0 0,0 1,0 1,0 1,0 2,0 4,1 0,0 0,0 0,0 1,0 2,0 2,0 0,0 1,1 1,1 1,0 1,0 2,0 0,0 0,1 0,1 1,0 1,0 2,0 0,0 0,1 1,1 0,0 1,0 1,1 1,0 2,0 2,1 1,0 1,0 1,1 1,0 1,0 2,1 1,0 1,1 2,1 0,1 1,1 1,2 2,2 4,4 6,7 3,5 4,11 5,16 0,1 0,2 0,3 0,0 0,1 0,1 0,1 0,2 0,2 -1,2 -1,3 -1,5 0,0 0,1 -1,1 0,1 0,2 0,3 -1,0 -1,1 -1,1 0,1 0,1 0,1 -1,1 -1,1 -1,2 0,1 -1,1 -1,2 -1,1 -1,1 -1,2 -3,5 -8,9 -13,12 -4,2 -9,4 -14,4 0,0 -1,0 -2,1 -1,0 -3,0 -5,-1 -1,0 -1,0 -2,0 0,0 0,0 -1,0 0,0 -1,0 -2,0 -10,-2 -19,-9 -24,-18 -3,-4 -4,-9 -5,-14 0,-2 0,-4 0,-6 0,-1 0,-2 0,-2 0,-2 0,-4 1,-5 0,-2 1,-4 1,-5 1,-1 1,-1 1,-1 0,-1 0,-1 1,-2 0,0 0,-1 0,-1 1,-1 2,-2 2,-3 0,-1 1,-1 1,-1 0,-1 0,-1 1,-1z"/>
 </g>
</svg>
