<?xml version="1.0" encoding="UTF-8"?>
<!DOCTYPE svg PUBLIC "-//W3C//DTD SVG 1.1//EN" "http://www.w3.org/Graphics/SVG/1.1/DTD/svg11.dtd">
<!-- Creator: CorelDRAW X8 -->
<svg xmlns="http://www.w3.org/2000/svg" xml:space="preserve" width="19.2097mm" height="16.0014mm" version="1.1" style="shape-rendering:geometricPrecision; text-rendering:geometricPrecision; image-rendering:optimizeQuality; fill-rule:evenodd; clip-rule:evenodd"
viewBox="0 0 273 228"
 xmlns:xlink="http://www.w3.org/1999/xlink">
 <defs>
  <style type="text/css">
   <![CDATA[
    .fil0 {fill:url(#id0)}
   ]]>
  </style>
  <linearGradient id="id0" gradientUnits="userSpaceOnUse" x1="8.67804" y1="-18.3706" x2="250.353" y2="199.474">
   <stop offset="0" style="stop-opacity:1; stop-color:#009846"/>
   <stop offset="0.368627" style="stop-opacity:1; stop-color:#75A85A"/>
   <stop offset="0.529412" style="stop-opacity:1; stop-color:#879057"/>
   <stop offset="1" style="stop-opacity:1; stop-color:#E51A4B"/>
  </linearGradient>
 </defs>
 <g id="Layer_x0020_1">
  <metadata id="CorelCorpID_0Corel-Layer"/>
  <path class="fil0" d="M273 40l0 161c0,14 -11,27 -25,27l-223 0c-14,0 -25,-13 -25,-27l0 -161c0,-14 11,-24 25,-24l25 0 0 14c0,10 8,19 18,19 10,0 17,-9 17,-19l0 -14 103 0 0 14c0,10 8,19 18,19 10,0 17,-9 17,-19l0 -14 25 0c14,0 25,10 25,24zm-252 164l231 0 0 -115 -231 0 0 115zm16 -63l35 0 0 -34 -35 0 0 34zm55 0l34 0 0 -34 -34 0 0 34zm55 0l34 0 0 -34 -34 0 0 34zm55 0l34 0 0 -34 -34 0 0 34zm-165 48l35 0 0 -34 -35 0 0 34zm55 0l34 0 0 -34 -34 0 0 34zm55 0l34 0 0 -34 -34 0 0 34zm55 0l34 0 0 -34 -34 0 0 34zm-133 -149l-2 0c-5,0 -10,-4 -10,-9l0 -22c0,-5 5,-9 10,-9l2 0c5,0 9,4 9,9l0 22c0,5 -4,9 -9,9zm137 0l-2 0c-5,0 -9,-4 -9,-9l0 -22c0,-5 4,-9 9,-9l2 0c5,0 10,4 10,9l0 22c0,5 -5,9 -10,9z"/>
 </g>
</svg>
